<?xml version="1.0" standalone="no"?>
<!DOCTYPE svg PUBLIC "-//W3C//DTD SVG 20010904//EN"
 "http://www.w3.org/TR/2001/REC-SVG-20010904/DTD/svg10.dtd">
<svg version="1.0" xmlns="http://www.w3.org/2000/svg"
 width="100.000000pt" height="100.000000pt" viewBox="0 0 100.000000 100.000000"
 preserveAspectRatio="xMidYMid meet">

<g transform="translate(0.000000,100.000000) scale(0.100000,-0.100000)"
fill="#000000" stroke="none">
<path d="M415 767 l-54 -113 -115 -16 c-117 -16 -146 -27 -146 -57 0 -8 39
-55 87 -103 l87 -87 -18 -108 c-31 -184 -21 -192 139 -111 l105 53 105 -53
c160 -81 170 -73 139 111 l-18 108 87 87 c48 48 87 95 87 103 0 30 -29 41
-146 57 l-115 16 -54 113 c-52 109 -55 113 -85 113 -30 0 -33 -4 -85 -113z
m149 -26 c61 -121 48 -113 196 -131 52 -7 99 -17 105 -21 6 -6 -25 -44 -80
-99 l-89 -89 19 -120 c10 -67 15 -124 11 -128 -4 -5 -52 16 -107 45 -54 28
-106 52 -116 52 -10 0 -64 -23 -120 -52 -56 -29 -105 -50 -109 -45 -4 4 1 61
11 128 l19 120 -89 89 c-55 55 -86 93 -80 99 6 4 53 14 105 21 148 18 135 10
196 131 30 60 59 109 64 109 5 0 34 -49 64 -109z"/>
</g>
</svg>
